<svg xmlns="http://www.w3.org/2000/svg" width="490" height="203" viewBox="0 0 490 203" fill="#202e79">
  <defs>
    <clipPath id="clip-path" transform="translate(17.83)">
      <path d="M10.44 87.51C4.94 93.94.85 104.22.63 105.88-2.68 118.68 7 141.45 30.83 148a8.54 8.54 0 0 0 9.38-3.58c4.94-7.54-9.38-15.08-9.38-15.08-48.66-36.09 34.91-64.85 10.88-93.5 9.25 14.85-16 31.77-31.27 51.67"/>
    </clipPath>
    <clipPath id="clip-path-2" transform="translate(17.83)">
      <path d="M54.51 70.22S49.37 75 52 79.86s7.21 3.68 9.21 2.11c11.33-8.94 12-20.75 10.12-30.2a46.83 46.83 0 0 0-5.71-13.59C56.76 23.48 42.05 11 47.44 0c-14 21.17 33.49 40.19 7.07 70.22"/>
    </clipPath>
  </defs>
  <path d="M51.23 189.74v-.06a9.85 9.85 0 1 1 19.7-.05v.05a9.85 9.85 0 1 1-19.7.06zm17.44 0v-.06a7.68 7.68 0 0 0-7.62-8 7.59 7.59 0 0 0-7.56 7.92v.05a7.68 7.68 0 0 0 7.62 8 7.59 7.59 0 0 0 7.56-7.91zM75.18 185.08h2.12v2.48a5.4 5.4 0 0 1 4.89-2.79c3.44 0 5.46 2.32 5.46 5.71v8.86h-2.13V191c0-2.65-1.43-4.31-3.94-4.31a4.2 4.2 0 0 0-4.28 4.47v8.17h-2.12zM91.29 192.28v-.06a7.43 7.43 0 0 1 13-4.91l-1.4 1.49a5.78 5.78 0 0 0-4.34-2.15 5.26 5.26 0 0 0-5.1 5.52v.05a5.33 5.33 0 0 0 5.24 5.55 5.87 5.87 0 0 0 4.36-2.13l1.35 1.27a7.38 7.38 0 0 1-13.13-4.63zM106.66 192.25v-.06c0-4.11 2.9-7.42 6.84-7.42 4.22 0 6.65 3.37 6.65 7.53a5.24 5.24 0 0 1 0 .7h-11.34a5 5 0 0 0 5 4.82 5.92 5.92 0 0 0 4.5-2l1.32 1.19a7.34 7.34 0 0 1-5.87 2.67 7.09 7.09 0 0 1-7.1-7.43zm11.34-.83c-.22-2.59-1.71-4.85-4.56-4.85-2.48 0-4.35 2.07-4.63 4.85zM142.83 185.08h2.26l-6 14.73c-1.21 2.95-2.59 4-4.74 4a6.49 6.49 0 0 1-3-.72l.72-1.68a4.44 4.44 0 0 0 2.24.52c1.26 0 2.07-.66 2.92-2.68l-6.48-14.2h2.34l5.16 11.95zM146.77 192.28v-.06a7.44 7.44 0 0 1 14.87-.05v.05a7.4 7.4 0 0 1-7.47 7.45 7.31 7.31 0 0 1-7.4-7.39zm12.69 0v-.06a5.4 5.4 0 0 0-5.29-5.57 5.27 5.27 0 0 0-5.22 5.52v.05a5.36 5.36 0 0 0 5.27 5.55 5.27 5.27 0 0 0 5.24-5.49zM165.26 193.93v-8.85h2.12v8.33c0 2.65 1.44 4.3 4 4.3a4.21 4.21 0 0 0 4.28-4.47v-8.16h2.09v14.26h-2.09v-2.48a5.45 5.45 0 0 1-4.89 2.78c-3.5 0-5.51-2.31-5.51-5.71zM181.51 185.33c1.38-.5 2-1.22 1.85-2.4h-1V180h2.54v2.48c0 2.24-1 3.31-3.06 3.78zM187.83 185.08h2.34l4.8 11.83 4.83-11.83h2.29l-6.21 14.37H194zM203.72 192.25v-.06c0-4.11 2.9-7.42 6.84-7.42 4.22 0 6.65 3.37 6.65 7.53a5.24 5.24 0 0 1 0 .7h-11.34a5 5 0 0 0 5 4.82 5.92 5.92 0 0 0 4.5-2l1.32 1.19a7.34 7.34 0 0 1-5.87 2.67 7.09 7.09 0 0 1-7.1-7.43zm11.34-.83c-.22-2.59-1.71-4.85-4.55-4.85-2.49 0-4.36 2.07-4.64 4.85zM229.05 201.82l1-1.65a9.16 9.16 0 0 0 5.45 1.83c3.15 0 5.19-1.74 5.19-5.08v-1.68a6.75 6.75 0 0 1-5.6 3 6.6 6.6 0 0 1-6.71-6.68v-.05a6.63 6.63 0 0 1 6.71-6.74 6.7 6.7 0 0 1 5.57 2.87v-2.56h2.12v11.78a6.88 6.88 0 0 1-1.82 5 7.49 7.49 0 0 1-5.43 1.9 11.13 11.13 0 0 1-6.48-1.94zm11.69-10.29v-.05a5 5 0 0 0-5.24-4.83 4.72 4.72 0 0 0-4.94 4.8v.06a4.83 4.83 0 0 0 4.94 4.85 5 5 0 0 0 5.24-4.83zM246.65 192.28v-.06a7.44 7.44 0 0 1 14.87-.05v.05a7.4 7.4 0 0 1-7.48 7.45 7.3 7.3 0 0 1-7.39-7.39zm12.69 0v-.06a5.4 5.4 0 0 0-5.3-5.57 5.26 5.26 0 0 0-5.21 5.52v.05a5.36 5.36 0 0 0 5.27 5.55 5.27 5.27 0 0 0 5.24-5.49zM266.1 195.56V187h-2v-1.87h2v-4.31h2.12v4.31h4.53V187h-4.53v8.33a2.12 2.12 0 0 0 2.4 2.38 4.44 4.44 0 0 0 2.07-.5V199a5.27 5.27 0 0 1-2.56.61c-2.29-.02-4.03-1.15-4.03-4.05zM284.83 179.61h2.43V182h-2.43zm.14 5.47h2.13v14.26H285zM292.78 195.56V187h-2v-1.87h2v-4.31h2.12v4.31h4.53V187h-4.53v8.33a2.12 2.12 0 0 0 2.4 2.38 4.44 4.44 0 0 0 2.07-.5V199a5.27 5.27 0 0 1-2.56.61c-2.29-.02-4.03-1.15-4.03-4.05zM302.08 201.74c1.37-.5 1.95-1.21 1.84-2.4h-1v-2.9h2.54v2.49c0 2.23-1 3.31-3.06 3.78zM328.89 185.08h2.26l-6 14.73c-1.22 2.95-2.6 4-4.75 4a6.45 6.45 0 0 1-3-.72l.72-1.68a4.41 4.41 0 0 0 2.23.52c1.27 0 2.07-.66 2.92-2.68l-6.48-14.2h2.35l5.17 11.95zM332.84 192.28v-.06a7.44 7.44 0 0 1 14.87-.05v.05a7.41 7.41 0 0 1-7.48 7.45 7.3 7.3 0 0 1-7.39-7.39zm12.69 0v-.06a5.4 5.4 0 0 0-5.3-5.57 5.26 5.26 0 0 0-5.21 5.52v.05a5.36 5.36 0 0 0 5.27 5.55 5.27 5.27 0 0 0 5.24-5.49zM351.32 193.93v-8.85h2.13v8.33c0 2.65 1.43 4.3 3.94 4.3a4.21 4.21 0 0 0 4.28-4.47v-8.16h2.1v14.26h-2.1v-2.48a5.44 5.44 0 0 1-4.88 2.78c-3.45 0-5.47-2.31-5.47-5.71zM367.57 185.33c1.38-.5 2-1.22 1.85-2.4h-1V180H371v2.48c0 2.24-1 3.31-3.07 3.78zM375.49 179.2h2.13v20.14h-2.13zM382.75 179.2h2.12v20.14h-2.12zM397.92 201.82l1-1.65a9.16 9.16 0 0 0 5.49 1.82c3.14 0 5.18-1.74 5.18-5.08v-1.68a6.75 6.75 0 0 1-5.6 3 6.6 6.6 0 0 1-6.7-6.68v-.05a6.63 6.63 0 0 1 6.7-6.74 6.71 6.71 0 0 1 5.58 2.87v-2.56h2.12v11.78a6.88 6.88 0 0 1-1.82 5 7.5 7.5 0 0 1-5.44 1.9 11.13 11.13 0 0 1-6.51-1.93zm11.7-10.29v-.05a5 5 0 0 0-5.24-4.83 4.72 4.72 0 0 0-4.94 4.8v.06a4.83 4.83 0 0 0 4.94 4.85 5 5 0 0 0 5.24-4.83zM415.52 192.25v-.06c0-4.11 2.9-7.42 6.84-7.42 4.23 0 6.65 3.37 6.65 7.53v.7h-11.33a5 5 0 0 0 5 4.82 5.91 5.91 0 0 0 4.49-2l1.33 1.19a7.36 7.36 0 0 1-5.88 2.67 7.09 7.09 0 0 1-7.1-7.43zm11.34-.83c-.22-2.59-1.71-4.85-4.55-4.85-2.48 0-4.36 2.07-4.63 4.85zM433.48 195.56V187h-2v-1.87h2v-4.31h2.13v4.31h4.52V187h-4.52v8.33a2.11 2.11 0 0 0 2.4 2.38 4.47 4.47 0 0 0 2.07-.5V199a5.33 5.33 0 0 1-2.57.61c-2.29-.02-4.03-1.15-4.03-4.05zM452.22 179.61h2.43V182h-2.43zm.14 5.47h2.12v14.26h-2.12zM460.16 195.56V187h-2v-1.87h2v-4.31h2.13v4.31h4.52V187h-4.52v8.33a2.11 2.11 0 0 0 2.4 2.38 4.49 4.49 0 0 0 2.07-.5V199a5.33 5.33 0 0 1-2.57.61c-2.29-.02-4.03-1.15-4.03-4.05zM470.29 196.44h2.54v2.9h-2.54zM10.44 87.51C4.94 93.94.85 104.22.63 105.88-2.68 118.68 7 141.45 30.83 148a8.54 8.54 0 0 0 9.38-3.58c4.94-7.54-9.38-15.08-9.38-15.08-48.66-36.09 34.91-64.85 10.88-93.5 9.25 14.85-16 31.77-31.27 51.67" transform="translate(17.83)"/>
  <g clip-path="url(#clip-path)">
    <path d="M0 35.84h83.57v113.91H0z"/>
  </g>
  <path d="M54.51 70.22S49.37 75 52 79.86s7.21 3.68 9.21 2.11c11.33-8.94 12-20.75 10.12-30.2a46.83 46.83 0 0 0-5.71-13.59C56.76 23.48 42.05 11 47.44 0c-14 21.17 33.49 40.19 7.07 70.22" transform="translate(17.83)"/>
  <g clip-path="url(#clip-path-2)">
    <path d="M51.29 0h47.47v84.72H51.29z"/>
  </g>
  <path d="M94.14 91.14h-8.22a1.14 1.14 0 0 0-1.13 1.14v37.25l-5-8.57c-5.61-9.56-11.41-19.44-16.9-29.24a1.13 1.13 0 0 0-1-.58H50a1.14 1.14 0 0 0-1.13 1.14v55.95a1.14 1.14 0 0 0 1.13 1.13h8.22a1.14 1.14 0 0 0 1.14-1.13V109l23.14 40.14a1.12 1.12 0 0 0 1 .56h10.64a1.13 1.13 0 0 0 1.14-1.13V92.28a1.14 1.14 0 0 0-1.14-1.14M172.15 141.53a24.53 24.53 0 0 1-5.51.66c-5 0-7.35-4.57-7.35-8.83v-21.59h11.89a1.14 1.14 0 0 0 1.14-1.14v-6.38a1.14 1.14 0 0 0-1.14-1.13h-11.44l.07-9.35a1.08 1.08 0 0 0-.41-.88 1.14 1.14 0 0 0-1-.24l-4.55 1a1.11 1.11 0 0 0-.83.74c-2.12 6.36-4.21 8.59-10.66 11.39a1.11 1.11 0 0 0-.68 1v3.84a1.14 1.14 0 0 0 1.13 1.14h4.86c-.05 1.82-.05 3.64-.05 5.42l.09 16.78c0 10.19 5.53 16.52 14.42 16.52 2.1 0 7.39-.29 10.92-3a1.11 1.11 0 0 0 .44-.9v-3.93a1.14 1.14 0 0 0-.43-.89 1.1 1.1 0 0 0-1-.21M253.46 102c-6.25 0-11.37 2.1-14.51 5.85v-3.58a1.14 1.14 0 0 0-1.13-1.13h-9.53a1.13 1.13 0 0 0-1.13 1.13v44a1.13 1.13 0 0 0 1.13 1.14h9.53a1.14 1.14 0 0 0 1.13-1.14v-30.11c2.79-2.94 7-6 10.84-6a9.57 9.57 0 0 1 3.29.46 1.14 1.14 0 0 0 1-.14 1.12 1.12 0 0 0 .49-.93v-8.47a1.14 1.14 0 0 0-1.14-1.14M312.77 86.16h-9.52a1.14 1.14 0 0 0-1.14 1.13v60.93a1.14 1.14 0 0 0 1.14 1.14h9.52a1.14 1.14 0 0 0 1.14-1.14V87.29a1.14 1.14 0 0 0-1.14-1.13M381.15 121.92h-9.52a1.13 1.13 0 0 0-1.14 1.12l-.08 17.9a30.43 30.43 0 0 1-6.39.64c-12.14 0-17.58-10.32-17.58-20.54 0-14.45 7-21.78 20.81-21.78a28.59 28.59 0 0 1 11.36 2.8 1.14 1.14 0 0 0 1.06-.1 1.13 1.13 0 0 0 .52-.94v-6.39a1.12 1.12 0 0 0-.64-1 37.29 37.29 0 0 0-17.28-3.87c-18.07 0-27.53 15.16-27.53 30.15 0 19.31 13.42 30.85 26.4 30.85 6.82 0 14-1.54 20.27-3a1.13 1.13 0 0 0 .88-1.1v-23.6a1.13 1.13 0 0 0-1.14-1.13M453.1 121.26c-5.15-1.73-8.3-2.92-8.3-5.82 0-4.08 5.77-5.16 9.18-5.16a21.5 21.5 0 0 1 9.39 2.16 1.12 1.12 0 0 0 1.09-.06 1.15 1.15 0 0 0 .54-1V106a1.15 1.15 0 0 0-.68-1 36.27 36.27 0 0 0-13.39-3c-8.31 0-17.14 5.12-17.14 14.6s7.94 12.17 14.32 14.34c5.16 1.76 8.33 3 8.33 5.94 0 3.72-4.13 5.07-6.92 5.07-3.94 0-10.19-1.73-13.41-4.53a1.15 1.15 0 0 0-1.22-.17 1.14 1.14 0 0 0-.66 1v7a1.12 1.12 0 0 0 .54 1 27.66 27.66 0 0 0 14.67 4.28c8.71 0 18.09-4.65 18.09-14.86 0-9.55-8-12.22-14.43-14.37M128.69 134.3a16.11 16.11 0 0 1-2.49 3.59 12 12 0 0 1-2.31 1.91 11.81 11.81 0 0 1-6.15 1.67c-2.22 0-3.77-.52-4.61-1.55a6.18 6.18 0 0 1-1.37-4.12 5.55 5.55 0 0 1 1-3.48 8.21 8.21 0 0 1 2.77-2.33 13.65 13.65 0 0 1 4.12-1.32c1.67-.27 3.35-.47 5.08-.61A9.69 9.69 0 0 1 126 128l2.69-.18zm10.6-14.3a27.7 27.7 0 0 0-1-7.72 11.82 11.82 0 0 0-3-5.23 13.39 13.39 0 0 0-5.6-3.11 32.33 32.33 0 0 0-8.82-1.05 39.82 39.82 0 0 0-7.19.64 32.35 32.35 0 0 0-6 1.63 14.43 14.43 0 0 0-3.92 2.15 2.57 2.57 0 0 0-1.12 1.78 7.65 7.65 0 0 0 .76 2.59 13.72 13.72 0 0 0 1.46 2.66 62.06 62.06 0 0 1 5.76-2.76 21.11 21.11 0 0 1 8.13-1.5c3.37 0 5.8.62 7.4 1.89s2.51 3.47 2.51 6.41v3h-3.36c-.72 0-1.46 0-2.25.1a74.56 74.56 0 0 0-7.81.89 26.5 26.5 0 0 0-7.66 2.43 16.42 16.42 0 0 0-5.74 4.69 12.11 12.11 0 0 0-2.2 7.55 14.57 14.57 0 0 0 1.27 6.4 11.6 11.6 0 0 0 3.26 4.11 13.06 13.06 0 0 0 4.49 2.24 19.38 19.38 0 0 0 5.08.7 20.56 20.56 0 0 0 8.32-1.5 17.1 17.1 0 0 0 5.42-3.62l1.63-1.71.43 2.3a5.12 5.12 0 0 0 1.89 3.28 8 8 0 0 0 4.74 1.16 16.46 16.46 0 0 0 3-.28 17.52 17.52 0 0 0 1.84-.49c-1.19-2.57-1.77-6.14-1.77-10.84zM285.12 134.3a16.11 16.11 0 0 1-2.49 3.59 11.41 11.41 0 0 1-8.46 3.58c-2.21 0-3.77-.52-4.61-1.55a6.23 6.23 0 0 1-1.37-4.12 5.55 5.55 0 0 1 1-3.48A8.15 8.15 0 0 1 272 130a13.59 13.59 0 0 1 4.11-1.32c1.67-.27 3.36-.47 5.08-.61a9.69 9.69 0 0 1 1.28-.1l2.69-.18zm10.6-14.3a27.7 27.7 0 0 0-1-7.72 11.82 11.82 0 0 0-3-5.23 13.39 13.39 0 0 0-5.6-3.11 32.33 32.33 0 0 0-8.82-1.05 39.82 39.82 0 0 0-7.19.64 32.35 32.35 0 0 0-6 1.63 14.43 14.43 0 0 0-3.92 2.15 2.55 2.55 0 0 0-1.11 1.78 7.5 7.5 0 0 0 .75 2.59 13.72 13.72 0 0 0 1.46 2.66 63.31 63.31 0 0 1 5.76-2.76 21.11 21.11 0 0 1 8.13-1.5c3.38 0 5.8.62 7.41 1.89s2.5 3.47 2.5 6.41v3h-3.36c-.72 0-1.46 0-2.25.1a74.86 74.86 0 0 0-7.81.89 26.7 26.7 0 0 0-7.66 2.43 16.42 16.42 0 0 0-5.74 4.69 12.11 12.11 0 0 0-2.2 7.55 14.57 14.57 0 0 0 1.27 6.4 11.71 11.71 0 0 0 3.26 4.11 13 13 0 0 0 4.5 2.24 19.26 19.26 0 0 0 5.08.7 20.63 20.63 0 0 0 8.32-1.5 17.17 17.17 0 0 0 5.41-3.62l1.63-1.71.46 2.34a5.07 5.07 0 0 0 1.88 3.28 8 8 0 0 0 4.74 1.16 16.46 16.46 0 0 0 3-.28 16.89 16.89 0 0 0 1.84-.49c-1.19-2.57-1.77-6.14-1.77-10.84zM417 134.3a16.11 16.11 0 0 1-2.49 3.59 11.44 11.44 0 0 1-8.46 3.58c-2.22 0-3.77-.52-4.61-1.55a6.23 6.23 0 0 1-1.37-4.12 5.55 5.55 0 0 1 1-3.48 8.21 8.21 0 0 1 2.77-2.33 13.75 13.75 0 0 1 4.12-1.32c1.67-.27 3.36-.47 5.08-.61a9.69 9.69 0 0 1 1.28-.1l2.69-.18zm10.6-14.3a27.7 27.7 0 0 0-1-7.72 11.75 11.75 0 0 0-3-5.23 13.28 13.28 0 0 0-5.6-3.15 32.33 32.33 0 0 0-8.82-1.05 39.82 39.82 0 0 0-7.19.64 32.14 32.14 0 0 0-6 1.63 14.28 14.28 0 0 0-3.92 2.15 2.57 2.57 0 0 0-1.12 1.78 7.65 7.65 0 0 0 .76 2.59 13.72 13.72 0 0 0 1.46 2.66 62.06 62.06 0 0 1 5.76-2.76 21.11 21.11 0 0 1 8.13-1.5c3.38 0 5.8.62 7.4 1.89s2.51 3.47 2.51 6.41v3h-3.36c-.72 0-1.46 0-2.25.1a74.56 74.56 0 0 0-7.81.89 26.7 26.7 0 0 0-7.66 2.43 16.42 16.42 0 0 0-5.74 4.69A12.11 12.11 0 0 0 388 137a14.42 14.42 0 0 0 1.28 6.4 11.47 11.47 0 0 0 3.25 4.11 13.06 13.06 0 0 0 4.49 2.24 19.39 19.39 0 0 0 5.09.7 20.54 20.54 0 0 0 8.31-1.5 17.1 17.1 0 0 0 5.42-3.62l1.63-1.71.44 2.3a5.07 5.07 0 0 0 1.88 3.28 8 8 0 0 0 4.74 1.16 16.46 16.46 0 0 0 3-.28 17.52 17.52 0 0 0 1.84-.49c-1.19-2.57-1.77-6.14-1.77-10.84zM209.34 135c0 2-1.12 3.72-3.33 5a14.13 14.13 0 0 1-7.17 1.75 10 10 0 0 1-4.74-.91 5.93 5.93 0 0 1-2.71-2.69 10.87 10.87 0 0 1-.95-3.78c-.1-1.37-.15-2.81-.15-4.3v-27h-11.45v27.64c0 1.81 0 3.61.15 5.36a32.24 32.24 0 0 0 .64 4.93 11.89 11.89 0 0 0 4.09 6.89c2.1 1.71 5.47 2.58 10 2.58a19.13 19.13 0 0 0 9.12-1.85 15.28 15.28 0 0 0 5-4l1.65-2.23.55 2.72a4.33 4.33 0 0 0 2.34 3.28 11.46 11.46 0 0 0 5.1 1h1.85a10.88 10.88 0 0 0 1.3-.15h.18v-46.16h-11.47z" transform="translate(17.83)"/>
</svg>